<svg xmlns="http://www.w3.org/2000/svg" xmlns:xlink="http://www.w3.org/1999/xlink" width="16" height="16" viewBox="0 0 16 16">
  <defs>
    <clipPath id="clip-SPRK_default_preset_name_custom_1">
      <rect width="150" height="150"/>
    </clipPath>
  </defs>
  <g id="SPRK_default_preset_name_custom_1" data-name="SPRK_default_preset_name_custom – 1" clip-path="url(#clip-SPRK_default_preset_name_custom_1)">
    <path id="users-solid" d="M2.4,38.857c.882,0,1.6-1.025,1.6-2.286s-.717-2.286-1.6-2.286S.8,35.311.8,36.571,1.518,38.857,2.4,38.857Zm11.2,0c.882,0,1.6-1.025,1.6-2.286s-.717-2.286-1.6-2.286S12,35.311,12,36.571,12.718,38.857,13.6,38.857ZM14.4,40H12.8a1.406,1.406,0,0,0-1.128.664,5.589,5.589,0,0,1,1.878,3.907H15.2c.443,0,.8-.511.8-1.143V42.286C16,41.025,15.283,40,14.4,40ZM8,40c1.547,0,2.8-1.789,2.8-4S9.547,32,8,32s-2.8,1.789-2.8,4S6.453,40,8,40Zm1.92,1.143H9.713A3.014,3.014,0,0,1,8,41.714a3.02,3.02,0,0,1-1.713-.571H6.08c-1.59,0-2.88,1.843-2.88,4.114v1.029C3.2,47.232,3.737,48,4.4,48h7.2c.662,0,1.2-.768,1.2-1.714V45.257C12.8,42.986,11.51,41.143,9.92,41.143Zm-5.593-.479A1.406,1.406,0,0,0,3.2,40H1.6C.718,40,0,41.025,0,42.286v1.143c0,.632.358,1.143.8,1.143H2.447a5.6,5.6,0,0,1,1.88-3.907Z" transform="translate(0 -32)" fill="#fff"/>
  </g>
</svg>
